<svg width="23" height="23" viewBox="0 0 23 23" fill="none" xmlns="http://www.w3.org/2000/svg">
<g filter="url(#filter0_d_1_29)">
<path d="M5.50002 4.99999C5.04169 4.99999 4.66669 5.37499 4.66669 5.83332V16.6667C4.66669 17.5833 5.41669 18.3333 6.33335 18.3333H17.1667C17.625 18.3333 18 17.9583 18 17.5C18 17.0417 17.625 16.6667 17.1667 16.6667H7.16669C6.70835 16.6667 6.33335 16.2917 6.33335 15.8333V5.83332C6.33335 5.37499 5.95835 4.99999 5.50002 4.99999ZM19.6667 1.66666H9.66669C8.75002 1.66666 8.00002 2.41666 8.00002 3.33332V13.3333C8.00002 14.25 8.75002 15 9.66669 15H19.6667C20.5834 15 21.3334 14.25 21.3334 13.3333V3.33332C21.3334 2.41666 20.5834 1.66666 19.6667 1.66666ZM18 9.16666H11.3334C10.875 9.16666 10.5 8.79166 10.5 8.33332C10.5 7.87499 10.875 7.49999 11.3334 7.49999H18C18.4584 7.49999 18.8334 7.87499 18.8334 8.33332C18.8334 8.79166 18.4584 9.16666 18 9.16666ZM14.6667 12.5H11.3334C10.875 12.5 10.5 12.125 10.5 11.6667C10.5 11.2083 10.875 10.8333 11.3334 10.8333H14.6667C15.125 10.8333 15.5 11.2083 15.5 11.6667C15.5 12.125 15.125 12.5 14.6667 12.5ZM18 5.83332H11.3334C10.875 5.83332 10.5 5.45832 10.5 4.99999C10.5 4.54166 10.875 4.16666 11.3334 4.16666H18C18.4584 4.16666 18.8334 4.54166 18.8334 4.99999C18.8334 5.45832 18.4584 5.83332 18 5.83332Z" fill="#D9D9D9"/>
</g>
<defs>
<filter id="filter0_d_1_29" x="-1" y="0" width="28" height="28" filterUnits="userSpaceOnUse" color-interpolation-filters="sRGB">
<feFlood flood-opacity="0" result="BackgroundImageFix"/>
<feColorMatrix in="SourceAlpha" type="matrix" values="0 0 0 0 0 0 0 0 0 0 0 0 0 0 0 0 0 0 127 0" result="hardAlpha"/>
<feOffset dy="4"/>
<feGaussianBlur stdDeviation="2"/>
<feComposite in2="hardAlpha" operator="out"/>
<feColorMatrix type="matrix" values="0 0 0 0 0 0 0 0 0 0 0 0 0 0 0 0 0 0 0.25 0"/>
<feBlend mode="normal" in2="BackgroundImageFix" result="effect1_dropShadow_1_29"/>
<feBlend mode="normal" in="SourceGraphic" in2="effect1_dropShadow_1_29" result="shape"/>
</filter>
</defs>
</svg>
